<svg width="64" height="64" viewBox="0 0 64 64" fill="none" xmlns="http://www.w3.org/2000/svg">
  <defs>
    <linearGradient id="clawGrad" x1="0" y1="0" x2="64" y2="64" gradientUnits="userSpaceOnUse">
      <stop offset="0%" stop-color="#6366F1"/>
      <stop offset="50%" stop-color="#8B5CF6"/>
      <stop offset="100%" stop-color="#A78BFA"/>
    </linearGradient>
  </defs>
  <circle cx="32" cy="32" r="30" fill="url(#clawGrad)" opacity="0.15"/>
  <circle cx="32" cy="32" r="22" fill="url(#clawGrad)" opacity="0.25"/>
  <path d="M20 38 C20 28, 24 20, 28 16 C29 15, 30 16, 29 18 C28 22, 26 28, 26 34" stroke="url(#clawGrad)" stroke-width="3" stroke-linecap="round" fill="none"/>
  <path d="M28 36 C28 26, 30 18, 32 14 C33 13, 34 14, 33 16 C32 20, 30 26, 30 32" stroke="url(#clawGrad)" stroke-width="3" stroke-linecap="round" fill="none"/>
  <path d="M36 36 C36 26, 34 18, 32 14 C31 13, 30 14, 31 16 C32 20, 34 26, 34 32" stroke="url(#clawGrad)" stroke-width="3" stroke-linecap="round" fill="none"/>
  <path d="M44 38 C44 28, 40 20, 36 16 C35 15, 34 16, 35 18 C36 22, 38 28, 38 34" stroke="url(#clawGrad)" stroke-width="3" stroke-linecap="round" fill="none"/>
  <path d="M22 40 Q32 48 42 40" stroke="url(#clawGrad)" stroke-width="3" stroke-linecap="round" fill="none"/>
</svg>
